# xmcd
#
# Track frame offsets: 
#        150
#        12730
#        26824
#        38089
#        60663
#        72709
#        85799
#        96759
#        105897
#        116583
#        129001
#        143802
#        155066
#        167071
#        180462
#        192971
#
# Disc length: 2738 seconds
#
# Revision: 0
# Processed by: cddbd v1.5.2PL0 Copyright (c) Steve Scherf et al.
# Submitted via: ExactAudioCopy v1.0b4
#
DISCID=d40ab010
DTITLE=Big Joe Turner -  Rhythm and Blues Years  LP 1
DYEAR=1986
DGENRE=Blues
TTITLE0=Bump Miss Susie
TTITLE1=Chill Is On
TTITLE2=I'll Never Stop Loving You
TTITLE3=Don't You Cry
TTITLE4=Poor Lover's Blues
TTITLE5=Still In Love
TTITLE6=Baby I Still Want You
TTITLE7=TV Mama
TTITLE8=Married Woman
TTITLE9=You Know I Love You
TTITLE10=Midnight Cannonball
TTITLE11=In The Evening
TTITLE12=Morning, Noon And Night
TTITLE13=Ti-Ri-Lee
TTITLE14=Lipstick, Powder And Paint
TTITLE15=Rock A While
EXTD=
EXTT0=
EXTT1=
EXTT2=
EXTT3=
EXTT4=
EXTT5=
EXTT6=
EXTT7=
EXTT8=
EXTT9=
EXTT10=
EXTT11=
EXTT12=
EXTT13=
EXTT14=
EXTT15=
PLAYORDER=
